<svg width="180" height="180" viewBox="0 0 180 180" fill="none" xmlns="http://www.w3.org/2000/svg">
  <!-- Background Circle -->
  <circle cx="90" cy="90" r="85" fill="#3B82F6"/>
  
  <!-- Shopping Cart -->
  <path d="M45 45C45 40.5817 48.5817 37 53 37H67C71.4183 37 75 40.5817 75 45V50H135C140.523 50 145 54.4772 145 60V147C145 152.523 140.523 157 135 157H53C48.4772 157 44 152.523 44 147V45H45Z" fill="#FFFFFF"/>
  
  <!-- Cart Handle -->
  <path d="M45 50H67V45C67 40.5817 63.4183 37 59 37H53C48.5817 37 45 40.5817 45 45V50Z" fill="#1E40AF"/>
  
  <!-- Cart Wheels -->
  <circle cx="60" cy="135" r="8" fill="#1E40AF"/>
  <circle cx="120" cy="135" r="8" fill="#1E40AF"/>
  
  <!-- Cart Items -->
  <rect x="50" y="70" width="80" height="8" fill="#3B82F6"/>
  <rect x="50" y="85" width="60" height="8" fill="#3B82F6"/>
  <rect x="50" y="100" width="70" height="8" fill="#3B82F6"/>
</svg> 