<svg width="32" height="32" viewBox="0 0 32 32" fill="none" xmlns="http://www.w3.org/2000/svg">
  <!-- Shopping Cart -->
  <path d="M6 6C6 4.89543 6.89543 4 8 4H12C13.1046 4 14 4.89543 14 6V8H24C25.1046 8 26 8.89543 26 10V26C26 27.1046 25.1046 28 24 28H8C6.89543 28 6 27.1046 6 26V6Z" fill="#3B82F6"/>
  
  <!-- Cart Handle -->
  <path d="M8 8H12V6C12 4.89543 11.1046 4 10 4H8C6.89543 4 6 4.89543 6 6V8H8Z" fill="#1E40AF"/>
  
  <!-- Cart Wheels -->
  <circle cx="10" cy="24" r="2" fill="#1E40AF"/>
  <circle cx="22" cy="24" r="2" fill="#1E40AF"/>
  
  <!-- Cart Items -->
  <rect x="8" y="12" width="16" height="2" fill="#FFFFFF"/>
  <rect x="8" y="15" width="12" height="2" fill="#FFFFFF"/>
  <rect x="8" y="18" width="14" height="2" fill="#FFFFFF"/>
</svg>
